<svg xmlns="http://www.w3.org/2000/svg" xmlns:v="https://svgstorm.com"
viewBox = "0 0 512 512"
width="512"
height="512">
<g fill="None" fill-opacity="0.0" stroke="#FDFDFD" stroke-opacity="1.00" stroke-width="0.3"><path d="
M 0.00 240.00 
C 3.77 180.90 24.83 120.07 74.00 82.00
C 60.33 78.19 47.63 71.13 34.00 67.00
C 33.73 64.25 37.29 63.32 38.00 61.00
C 44.02 53.95 51.01 46.98 58.00 41.00
C 83.29 19.39 115.17 1.68 149.00 1.00
C 148.99 1.00 149.00 0.00 149.00 0.00
L 0.00 0.00
L 0.00 240.00 Z"/>
</g>
<g fill="None" fill-opacity="0.0" stroke="#5B5B5B" stroke-opacity="1.00" stroke-width="0.3"><path d="
M 149.00 1.00 
C 151.85 0.94 155.97 1.84 158.00 0.00
L 149.00 0.00
C 149.00 0.00 148.99 1.00 149.00 1.00 Z"/>
</g>
<g fill="None" fill-opacity="0.0" stroke="#000000" stroke-opacity="1.00" stroke-width="0.3"><path d="
M 149.00 1.00 
C 115.17 1.68 83.29 19.39 58.00 41.00
C 51.41 47.59 44.54 54.46 38.00 61.00
C 37.29 63.32 33.73 64.25 34.00 67.00
C 47.63 71.13 60.33 78.19 74.00 82.00
C 24.83 120.07 3.77 180.90 0.00 240.00
L 0.00 270.00
C 11.59 272.91 23.32 275.32 35.00 278.00
C 12.12 351.25 52.06 431.44 119.00 466.00
C 123.60 459.02 129.43 452.95 134.00 446.00
C 163.45 484.01 208.25 506.16 254.00 512.00
L 258.00 512.00
C 303.17 505.90 348.96 484.89 377.00 446.00
C 383.05 451.92 387.93 459.21 393.00 466.00
C 460.04 431.41 499.75 351.27 477.00 278.00
C 488.68 275.45 500.38 272.92 512.00 270.00
L 512.00 242.00
C 508.73 182.20 487.74 120.42 438.00 82.00
C 451.58 77.94 464.54 71.60 478.00 67.00
C 478.27 64.25 474.71 63.32 474.00 61.00
C 467.42 54.42 460.54 47.54 454.00 41.00
C 427.13 18.04 394.94 2.45 360.00 0.00
L 339.00 0.00
C 325.15 0.11 308.32 5.83 294.98 7.98 C 281.63 10.12 270.40 21.13 257.92 22.92 C 245.45 24.72 234.70 11.46 221.32 9.68 C 207.95 7.90 191.78 0.14 178.00 0.00
L 158.00 0.00
C 155.97 1.84 151.85 0.94 149.00 1.00
M 428.00 113.00 
C 432.29 116.66 436.38 120.76 440.00 125.00
C 446.97 133.16 452.64 140.79 457.75 150.25 C 462.87 159.71 467.38 169.75 470.78 180.22 C 474.17 190.70 477.72 204.96 478.99 216.01 C 480.27 227.05 486.89 246.07 473.98 247.98 C 461.06 249.88 450.83 254.36 438.00 256.00
C 440.00 265.98 445.44 273.15 447.78 283.22 C 450.11 293.30 452.46 304.23 453.00 315.00 C 453.53 325.77 452.31 339.04 450.07 349.07 C 447.83 359.10 445.40 367.95 441.03 377.03 C 436.65 386.10 432.19 391.03 426.70 399.70 C 421.20 408.37 415.44 409.75 408.25 418.25 C 401.07 426.76 395.27 421.77 390.08 412.92 C 384.90 404.06 378.90 399.66 373.00 392.00
C 366.13 407.59 358.99 423.31 347.00 436.00
C 343.93 439.60 340.55 442.97 337.00 446.00
C 315.16 464.67 285.28 480.85 256.00 481.00 C 226.72 481.15 196.79 464.62 175.00 446.00
C 171.75 443.22 168.74 440.20 166.00 437.00
C 154.30 423.31 145.35 408.64 139.00 392.00
C 133.30 399.47 127.35 403.78 122.25 412.25 C 117.14 420.71 111.59 427.26 104.25 418.75 C 96.91 410.24 91.47 408.87 85.75 400.25 C 80.03 391.63 75.50 386.03 71.08 376.92 C 66.65 367.81 64.02 359.08 62.01 348.99 C 60.00 338.90 58.20 325.79 59.00 315.00 C 59.80 304.21 61.69 293.38 64.33 283.33 C 66.97 273.27 71.03 265.47 75.00 256.00
C 66.43 254.28 57.79 253.03 49.33 250.67 C 40.87 248.31 30.07 249.72 30.98 239.98 C 31.89 230.23 31.78 219.89 33.98 210.98 C 36.17 202.06 36.75 193.87 39.78 185.78 C 42.80 177.68 44.41 169.62 48.31 162.31 C 52.20 154.99 54.82 148.87 59.25 142.25 C 63.69 135.64 67.71 129.99 73.00 124.00
C 76.37 120.06 80.11 116.33 84.00 113.00
C 104.26 95.69 128.93 89.23 153.00 81.00
C 131.07 73.49 109.81 63.93 88.00 56.00
C 94.30 49.99 100.67 46.60 108.69 42.69 C 116.72 38.79 124.09 35.47 133.22 33.22 C 142.35 30.98 153.96 30.06 164.00 30.00 C 174.04 29.94 185.97 31.40 195.22 33.78 C 204.47 36.16 213.32 37.20 221.68 41.32 C 230.04 45.45 237.27 45.99 244.75 52.25 C 252.22 58.52 259.18 59.13 266.70 52.70 C 274.21 46.26 281.36 46.07 289.69 41.69 C 298.03 37.32 306.75 36.38 316.00 34.00 C 325.26 31.63 336.98 29.82 347.00 30.00 C 357.02 30.18 368.83 30.82 378.00 33.00 C 387.17 35.17 394.58 38.47 402.70 42.31 C 410.81 46.14 417.76 49.79 424.00 56.00
C 402.62 64.12 381.39 72.77 360.00 81.00
C 382.96 90.21 409.21 94.56 428.00 113.00 Z"/>
</g>
<g fill="None" fill-opacity="0.0" stroke="#F9F9F9" stroke-opacity="1.00" stroke-width="0.3"><path d="
M 339.00 0.00 
L 178.00 0.00
C 191.78 0.14 207.95 7.90 221.32 9.68 C 234.70 11.46 245.45 24.72 257.92 22.92 C 270.40 21.13 281.63 10.12 294.98 7.98 C 308.32 5.83 325.15 0.11 339.00 0.00 Z"/>
</g>
<g fill="None" fill-opacity="0.0" stroke="#FDFDFD" stroke-opacity="1.00" stroke-width="0.3"><path d="
M 454.00 41.00 
C 461.05 47.02 468.02 54.01 474.00 61.00
C 474.71 63.32 478.27 64.25 478.00 67.00
C 464.54 71.60 451.58 77.94 438.00 82.00
C 487.74 120.42 508.73 182.20 512.00 242.00
L 512.00 0.00
L 360.00 0.00
C 394.94 2.45 427.13 18.04 454.00 41.00 Z"/>
</g>
<g fill="None" fill-opacity="0.0" stroke="#FDFDFD" stroke-opacity="1.00" stroke-width="0.3"><path d="
M 84.00 113.00 
C 80.41 116.59 76.54 120.46 73.00 124.00
C 67.71 129.99 63.69 135.64 59.25 142.25 C 54.82 148.87 52.20 154.99 48.31 162.31 C 44.41 169.62 42.80 177.68 39.78 185.78 C 36.75 193.87 36.17 202.06 33.98 210.98 C 31.78 219.89 31.89 230.23 30.98 239.98 C 30.07 249.72 40.87 248.31 49.33 250.67 C 57.79 253.03 66.43 254.28 75.00 256.00
C 71.03 265.47 66.97 273.27 64.33 283.33 C 61.69 293.38 59.80 304.21 59.00 315.00 C 58.20 325.79 60.00 338.90 62.01 348.99 C 64.02 359.08 66.65 367.81 71.08 376.92 C 75.50 386.03 80.03 391.63 85.75 400.25 C 91.47 408.87 96.91 410.24 104.25 418.75 C 111.59 427.26 117.14 420.71 122.25 412.25 C 127.35 403.78 133.30 399.47 139.00 392.00
C 145.35 408.64 154.30 423.31 166.00 437.00
C 168.92 439.92 172.13 443.13 175.00 446.00
C 196.79 464.62 226.72 481.15 256.00 481.00 C 285.28 480.85 315.16 464.67 337.00 446.00
C 340.25 442.75 343.79 439.21 347.00 436.00
C 358.99 423.31 366.13 407.59 373.00 392.00
C 378.90 399.66 384.90 404.06 390.08 412.92 C 395.27 421.77 401.07 426.76 408.25 418.25 C 415.44 409.75 421.20 408.37 426.70 399.70 C 432.19 391.03 436.65 386.10 441.03 377.03 C 445.40 367.95 447.83 359.10 450.07 349.07 C 452.31 339.04 453.53 325.77 453.00 315.00 C 452.46 304.23 450.11 293.30 447.78 283.22 C 445.44 273.15 440.00 265.98 438.00 256.00
C 450.83 254.36 461.06 249.88 473.98 247.98 C 486.89 246.07 480.27 227.05 478.99 216.01 C 477.72 204.96 474.17 190.70 470.78 180.22 C 467.38 169.75 462.87 159.71 457.75 150.25 C 452.64 140.79 446.97 133.16 440.00 125.00
C 436.08 121.08 431.87 116.87 428.00 113.00
C 409.21 94.56 382.96 90.21 360.00 81.00
C 381.39 72.77 402.62 64.12 424.00 56.00
C 417.76 49.79 410.81 46.14 402.70 42.31 C 394.58 38.47 387.17 35.17 378.00 33.00 C 368.83 30.82 357.02 30.18 347.00 30.00 C 336.98 29.82 325.26 31.63 316.00 34.00 C 306.75 36.38 298.03 37.32 289.69 41.69 C 281.36 46.07 274.21 46.26 266.70 52.70 C 259.18 59.13 252.22 58.52 244.75 52.25 C 237.27 45.99 230.04 45.45 221.68 41.32 C 213.32 37.20 204.47 36.16 195.22 33.78 C 185.97 31.40 174.04 29.94 164.00 30.00 C 153.96 30.06 142.35 30.98 133.22 33.22 C 124.09 35.47 116.72 38.79 108.69 42.69 C 100.67 46.60 94.30 49.99 88.00 56.00
C 109.81 63.93 131.07 73.49 153.00 81.00
C 128.93 89.23 104.26 95.69 84.00 113.00
M 375.00 117.00 
C 378.25 119.78 381.26 122.80 384.00 126.00
C 403.56 148.89 417.37 176.71 418.99 207.01 C 420.62 237.31 401.62 263.85 379.00 283.00
C 387.37 296.06 396.21 320.19 389.01 335.01 C 381.81 349.83 375.41 365.38 359.77 372.77 C 344.13 380.16 339.01 396.16 330.08 410.08 C 321.15 424.00 300.87 435.39 283.93 429.07 C 266.98 422.76 248.02 422.21 230.99 428.99 C 213.97 435.77 193.99 424.23 184.70 410.30 C 175.40 396.38 170.82 380.82 154.92 373.08 C 139.01 365.34 133.33 349.90 126.02 334.98 C 118.72 320.05 126.56 296.70 135.00 283.00
C 117.84 266.48 103.36 251.56 98.02 227.98 C 92.69 204.39 99.16 173.64 111.31 153.31 C 123.45 132.97 134.22 117.82 155.23 105.23 C 176.24 92.64 205.63 88.94 230.07 97.93 C 254.51 106.91 282.80 97.27 307.67 93.67 C 332.54 90.07 356.75 100.99 375.00 117.00 Z"/>
</g>
<g fill="None" fill-opacity="0.0" stroke="#747474" stroke-opacity="1.00" stroke-width="0.3"><path d="
M 38.00 61.00 
C 44.54 54.46 51.41 47.59 58.00 41.00
C 51.01 46.98 44.02 53.95 38.00 61.00 Z"/>
</g>
<g fill="None" fill-opacity="0.0" stroke="#727272" stroke-opacity="1.00" stroke-width="0.3"><path d="
M 474.00 61.00 
C 468.02 54.01 461.05 47.02 454.00 41.00
C 460.54 47.54 467.42 54.42 474.00 61.00 Z"/>
</g>
<g fill="None" fill-opacity="0.0" stroke="#000000" stroke-opacity="1.00" stroke-width="0.3"><path d="
M 384.00 126.00 
C 381.08 123.08 377.87 119.87 375.00 117.00
C 356.75 100.99 332.54 90.07 307.67 93.67 C 282.80 97.27 254.51 106.91 230.07 97.93 C 205.63 88.94 176.24 92.64 155.23 105.23 C 134.22 117.82 123.45 132.97 111.31 153.31 C 99.16 173.64 92.69 204.39 98.02 227.98 C 103.36 251.56 117.84 266.48 135.00 283.00
C 126.56 296.70 118.72 320.05 126.02 334.98 C 133.33 349.90 139.01 365.34 154.92 373.08 C 170.82 380.82 175.40 396.38 184.70 410.30 C 193.99 424.23 213.97 435.77 230.99 428.99 C 248.02 422.21 266.98 422.76 283.93 429.07 C 300.87 435.39 321.15 424.00 330.08 410.08 C 339.01 396.16 344.13 380.16 359.77 372.77 C 375.41 365.38 381.81 349.83 389.01 335.01 C 396.21 320.19 387.37 296.06 379.00 283.00
C 401.62 263.85 420.62 237.31 418.99 207.01 C 417.37 176.71 403.56 148.89 384.00 126.00
M 343.00 277.00 
C 346.76 291.69 364.85 309.24 360.22 325.22 C 355.59 341.20 338.85 356.33 322.32 351.68 C 305.79 347.02 288.77 339.30 272.00 335.00
C 272.00 324.67 272.00 314.33 272.00 304.00
C 293.93 298.13 311.15 276.12 310.00 253.00
C 300.00 253.00 290.00 253.00 280.00 253.00
C 282.14 282.89 232.01 282.87 234.00 253.00
C 224.00 253.00 214.00 253.00 204.00 253.00
C 203.25 276.10 220.10 297.81 242.00 304.00
C 242.00 314.33 242.00 324.67 242.00 335.00
C 225.25 339.41 208.35 347.00 191.78 351.78 C 175.21 356.55 158.24 340.67 154.07 324.93 C 149.91 309.18 166.99 291.86 171.00 277.00
C 153.49 255.62 123.67 240.35 126.00 209.00 C 128.33 177.65 140.45 156.33 165.25 134.25 C 190.05 112.17 229.73 133.55 258.00 133.00 C 286.27 132.45 324.90 112.73 349.25 134.75 C 373.59 156.77 386.78 177.97 389.00 209.00 C 391.21 240.04 360.58 256.11 343.00 277.00
M 312.00 380.00 
C 308.91 395.89 293.40 404.48 278.98 397.02 C 264.55 389.57 250.35 389.14 235.78 396.78 C 221.20 404.42 205.55 396.12 202.00 380.00
C 214.19 374.68 225.81 373.97 238.02 368.02 C 250.23 362.08 262.98 361.69 275.22 367.78 C 287.47 373.86 299.85 374.18 312.00 380.00 Z"/>
</g>
<g fill="None" fill-opacity="0.0" stroke="#7D7D7D" stroke-opacity="1.00" stroke-width="0.3"><path d="
M 73.00 124.00 
C 76.54 120.46 80.41 116.59 84.00 113.00
C 80.11 116.33 76.37 120.06 73.00 124.00 Z"/>
</g>
<g fill="None" fill-opacity="0.0" stroke="#7B7B7B" stroke-opacity="1.00" stroke-width="0.3"><path d="
M 440.00 125.00 
C 436.38 120.76 432.29 116.66 428.00 113.00
C 431.87 116.87 436.08 121.08 440.00 125.00 Z"/>
</g>
<g fill="None" fill-opacity="0.0" stroke="#828282" stroke-opacity="1.00" stroke-width="0.3"><path d="
M 384.00 126.00 
C 381.26 122.80 378.25 119.78 375.00 117.00
C 377.87 119.87 381.08 123.08 384.00 126.00 Z"/>
</g>
<g fill="None" fill-opacity="0.0" stroke="#FDFDFD" stroke-opacity="1.00" stroke-width="0.3"><path d="
M 343.00 277.00 
C 360.58 256.11 391.21 240.04 389.00 209.00 C 386.78 177.97 373.59 156.77 349.25 134.75 C 324.90 112.73 286.27 132.45 258.00 133.00 C 229.73 133.55 190.05 112.17 165.25 134.25 C 140.45 156.33 128.33 177.65 126.00 209.00 C 123.67 240.35 153.49 255.62 171.00 277.00
C 166.99 291.86 149.91 309.18 154.07 324.93 C 158.24 340.67 175.21 356.55 191.78 351.78 C 208.35 347.00 225.25 339.41 242.00 335.00
C 242.00 324.67 242.00 314.33 242.00 304.00
C 220.10 297.81 203.25 276.10 204.00 253.00
C 214.00 253.00 224.00 253.00 234.00 253.00
C 232.01 282.87 282.14 282.89 280.00 253.00
C 290.00 253.00 300.00 253.00 310.00 253.00
C 311.15 276.12 293.93 298.13 272.00 304.00
C 272.00 314.33 272.00 324.67 272.00 335.00
C 288.77 339.30 305.79 347.02 322.32 351.68 C 338.85 356.33 355.59 341.20 360.22 325.22 C 364.85 309.24 346.76 291.69 343.00 277.00
M 196.00 192.00 
C 196.00 202.00 196.00 212.00 196.00 222.00
C 186.00 222.00 176.00 222.00 166.00 222.00
C 166.00 212.00 166.00 202.00 166.00 192.00
C 176.00 192.00 186.00 192.00 196.00 192.00
M 346.00 192.00 
C 346.00 202.00 346.00 212.00 346.00 222.00
C 336.00 222.00 326.00 222.00 316.00 222.00
C 316.00 212.00 316.00 202.00 316.00 192.00
C 326.00 192.00 336.00 192.00 346.00 192.00 Z"/>
</g>
<g fill="None" fill-opacity="0.0" stroke="#000000" stroke-opacity="1.00" stroke-width="0.3"><path d="
M 196.00 192.00 
C 186.00 192.00 176.00 192.00 166.00 192.00
C 166.00 202.00 166.00 212.00 166.00 222.00
C 176.00 222.00 186.00 222.00 196.00 222.00
C 196.00 212.00 196.00 202.00 196.00 192.00 Z"/>
</g>
<g fill="None" fill-opacity="0.0" stroke="#000000" stroke-opacity="1.00" stroke-width="0.3"><path d="
M 346.00 192.00 
C 336.00 192.00 326.00 192.00 316.00 192.00
C 316.00 202.00 316.00 212.00 316.00 222.00
C 326.00 222.00 336.00 222.00 346.00 222.00
C 346.00 212.00 346.00 202.00 346.00 192.00 Z"/>
</g>
<g fill="None" fill-opacity="0.0" stroke="#FDFDFD" stroke-opacity="1.00" stroke-width="0.3"><path d="
M 0.00 512.00 
L 254.00 512.00
C 208.25 506.16 163.45 484.01 134.00 446.00
C 129.43 452.95 123.60 459.02 119.00 466.00
C 52.06 431.44 12.12 351.25 35.00 278.00
C 23.32 275.32 11.59 272.91 0.00 270.00
L 0.00 512.00 Z"/>
</g>
<g fill="None" fill-opacity="0.0" stroke="#FDFDFD" stroke-opacity="1.00" stroke-width="0.3"><path d="
M 258.00 512.00 
L 512.00 512.00
L 512.00 270.00
C 500.38 272.92 488.68 275.45 477.00 278.00
C 499.75 351.27 460.04 431.41 393.00 466.00
C 387.93 459.21 383.05 451.92 377.00 446.00
C 348.96 484.89 303.17 505.90 258.00 512.00 Z"/>
</g>
<g fill="None" fill-opacity="0.0" stroke="#FBFBFB" stroke-opacity="1.00" stroke-width="0.3"><path d="
M 312.00 380.00 
C 299.85 374.18 287.47 373.86 275.22 367.78 C 262.98 361.69 250.23 362.08 238.02 368.02 C 225.81 373.97 214.19 374.68 202.00 380.00
C 205.55 396.12 221.20 404.42 235.78 396.78 C 250.35 389.14 264.55 389.57 278.98 397.02 C 293.40 404.48 308.91 395.89 312.00 380.00 Z"/>
</g>
<g fill="None" fill-opacity="0.0" stroke="#777777" stroke-opacity="1.00" stroke-width="0.3"><path d="
M 337.00 446.00 
C 340.55 442.97 343.93 439.60 347.00 436.00
C 343.79 439.21 340.25 442.75 337.00 446.00 Z"/>
</g>
<g fill="None" fill-opacity="0.0" stroke="#6F6F6F" stroke-opacity="1.00" stroke-width="0.3"><path d="
M 175.00 446.00 
C 172.13 443.13 168.92 439.92 166.00 437.00
C 168.74 440.20 171.75 443.22 175.00 446.00 Z"/>
</g>
<g fill="#FDFDFD" fill-opacity="1.00" stroke="None">
<path d="
M 0.00 240.00 
C 3.77 180.90 24.83 120.07 74.00 82.00
C 60.33 78.19 47.63 71.13 34.00 67.00
C 33.73 64.25 37.29 63.32 38.00 61.00
C 44.02 53.95 51.01 46.98 58.00 41.00
C 83.29 19.39 115.17 1.68 149.00 1.00
C 148.99 1.00 149.00 0.00 149.00 0.00
L 0.00 0.00
L 0.00 240.00 Z"/>
</g>
<g fill="#5B5B5B" fill-opacity="1.00" stroke="None">
<path d="
M 149.00 1.00 
C 151.85 0.94 155.97 1.84 158.00 0.00
L 149.00 0.00
C 149.00 0.00 148.99 1.00 149.00 1.00 Z"/>
</g>
<g fill="#000000" fill-opacity="1.00" stroke="None">
<path d="
M 149.00 1.00 
C 115.17 1.68 83.29 19.39 58.00 41.00
C 51.41 47.59 44.54 54.46 38.00 61.00
C 37.29 63.32 33.73 64.25 34.00 67.00
C 47.63 71.13 60.33 78.19 74.00 82.00
C 24.83 120.07 3.77 180.90 0.00 240.00
L 0.00 270.00
C 11.59 272.91 23.32 275.32 35.00 278.00
C 12.12 351.25 52.06 431.44 119.00 466.00
C 123.60 459.02 129.43 452.95 134.00 446.00
C 163.45 484.01 208.25 506.16 254.00 512.00
L 258.00 512.00
C 303.17 505.90 348.96 484.89 377.00 446.00
C 383.05 451.92 387.93 459.21 393.00 466.00
C 460.04 431.41 499.75 351.27 477.00 278.00
C 488.68 275.45 500.38 272.92 512.00 270.00
L 512.00 242.00
C 508.73 182.20 487.74 120.42 438.00 82.00
C 451.58 77.94 464.54 71.60 478.00 67.00
C 478.27 64.25 474.71 63.32 474.00 61.00
C 467.42 54.42 460.54 47.54 454.00 41.00
C 427.13 18.04 394.94 2.45 360.00 0.00
L 339.00 0.00
C 325.15 0.11 308.32 5.83 294.98 7.98 C 281.63 10.12 270.40 21.13 257.92 22.92 C 245.45 24.72 234.70 11.46 221.32 9.68 C 207.95 7.90 191.78 0.14 178.00 0.00
L 158.00 0.00
C 155.97 1.84 151.85 0.94 149.00 1.00
M 428.00 113.00 
C 432.29 116.66 436.38 120.76 440.00 125.00
C 446.97 133.16 452.64 140.79 457.75 150.25 C 462.87 159.71 467.38 169.75 470.78 180.22 C 474.17 190.70 477.72 204.96 478.99 216.01 C 480.27 227.05 486.89 246.07 473.98 247.98 C 461.06 249.88 450.83 254.36 438.00 256.00
C 440.00 265.98 445.44 273.15 447.78 283.22 C 450.11 293.30 452.46 304.23 453.00 315.00 C 453.53 325.77 452.31 339.04 450.07 349.07 C 447.83 359.10 445.40 367.95 441.03 377.03 C 436.65 386.10 432.19 391.03 426.70 399.70 C 421.20 408.37 415.44 409.75 408.25 418.25 C 401.07 426.76 395.27 421.77 390.08 412.92 C 384.90 404.06 378.90 399.66 373.00 392.00
C 366.13 407.59 358.99 423.31 347.00 436.00
C 343.93 439.60 340.55 442.97 337.00 446.00
C 315.16 464.67 285.28 480.85 256.00 481.00 C 226.72 481.15 196.79 464.62 175.00 446.00
C 171.75 443.22 168.74 440.20 166.00 437.00
C 154.30 423.31 145.35 408.64 139.00 392.00
C 133.30 399.47 127.35 403.78 122.25 412.25 C 117.14 420.71 111.59 427.26 104.25 418.75 C 96.91 410.24 91.47 408.87 85.75 400.25 C 80.03 391.63 75.50 386.03 71.08 376.92 C 66.65 367.81 64.02 359.08 62.01 348.99 C 60.00 338.90 58.20 325.79 59.00 315.00 C 59.80 304.21 61.69 293.38 64.33 283.33 C 66.97 273.27 71.03 265.47 75.00 256.00
C 66.43 254.28 57.79 253.03 49.33 250.67 C 40.87 248.31 30.07 249.72 30.98 239.98 C 31.89 230.23 31.78 219.89 33.98 210.98 C 36.17 202.06 36.75 193.87 39.78 185.78 C 42.80 177.68 44.41 169.62 48.31 162.31 C 52.20 154.99 54.82 148.87 59.25 142.25 C 63.69 135.64 67.71 129.99 73.00 124.00
C 76.37 120.06 80.11 116.33 84.00 113.00
C 104.26 95.69 128.93 89.23 153.00 81.00
C 131.07 73.49 109.81 63.93 88.00 56.00
C 94.30 49.99 100.67 46.60 108.69 42.69 C 116.72 38.79 124.09 35.47 133.22 33.22 C 142.35 30.98 153.96 30.06 164.00 30.00 C 174.04 29.94 185.97 31.40 195.22 33.78 C 204.47 36.16 213.32 37.20 221.68 41.32 C 230.04 45.45 237.27 45.99 244.75 52.25 C 252.22 58.52 259.18 59.13 266.70 52.70 C 274.21 46.26 281.36 46.07 289.69 41.69 C 298.03 37.32 306.75 36.38 316.00 34.00 C 325.26 31.63 336.98 29.82 347.00 30.00 C 357.02 30.18 368.83 30.82 378.00 33.00 C 387.17 35.17 394.58 38.47 402.70 42.31 C 410.81 46.14 417.76 49.79 424.00 56.00
C 402.62 64.12 381.39 72.77 360.00 81.00
C 382.96 90.21 409.21 94.56 428.00 113.00 Z"/>
</g>
<g fill="#F9F9F9" fill-opacity="1.00" stroke="None">
<path d="
M 339.00 0.00 
L 178.00 0.00
C 191.78 0.14 207.95 7.90 221.32 9.68 C 234.70 11.46 245.45 24.72 257.92 22.92 C 270.40 21.13 281.63 10.12 294.98 7.98 C 308.32 5.83 325.15 0.11 339.00 0.00 Z"/>
</g>
<g fill="#FDFDFD" fill-opacity="1.00" stroke="None">
<path d="
M 454.00 41.00 
C 461.05 47.02 468.02 54.01 474.00 61.00
C 474.71 63.32 478.27 64.25 478.00 67.00
C 464.54 71.60 451.58 77.94 438.00 82.00
C 487.74 120.42 508.73 182.20 512.00 242.00
L 512.00 0.00
L 360.00 0.00
C 394.94 2.45 427.13 18.04 454.00 41.00 Z"/>
</g>
<g fill="#FDFDFD" fill-opacity="1.00" stroke="None">
<path d="
M 84.00 113.00 
C 80.41 116.59 76.54 120.46 73.00 124.00
C 67.71 129.99 63.69 135.64 59.25 142.25 C 54.82 148.87 52.20 154.99 48.31 162.31 C 44.41 169.62 42.80 177.68 39.78 185.78 C 36.75 193.87 36.17 202.06 33.98 210.98 C 31.78 219.89 31.89 230.23 30.98 239.98 C 30.07 249.72 40.87 248.31 49.33 250.67 C 57.79 253.03 66.43 254.28 75.00 256.00
C 71.03 265.47 66.97 273.27 64.33 283.33 C 61.69 293.38 59.80 304.21 59.00 315.00 C 58.20 325.79 60.00 338.90 62.01 348.99 C 64.02 359.08 66.65 367.81 71.08 376.92 C 75.50 386.03 80.03 391.63 85.75 400.25 C 91.47 408.87 96.91 410.24 104.25 418.75 C 111.59 427.26 117.14 420.71 122.25 412.25 C 127.35 403.78 133.30 399.47 139.00 392.00
C 145.35 408.64 154.30 423.31 166.00 437.00
C 168.92 439.92 172.13 443.13 175.00 446.00
C 196.79 464.62 226.72 481.15 256.00 481.00 C 285.28 480.85 315.16 464.67 337.00 446.00
C 340.25 442.75 343.79 439.21 347.00 436.00
C 358.99 423.31 366.13 407.59 373.00 392.00
C 378.90 399.66 384.90 404.06 390.08 412.92 C 395.27 421.77 401.07 426.76 408.25 418.25 C 415.44 409.75 421.20 408.37 426.70 399.70 C 432.19 391.03 436.65 386.10 441.03 377.03 C 445.40 367.95 447.83 359.10 450.07 349.07 C 452.31 339.04 453.53 325.77 453.00 315.00 C 452.46 304.23 450.11 293.30 447.78 283.22 C 445.44 273.15 440.00 265.98 438.00 256.00
C 450.83 254.36 461.06 249.88 473.98 247.98 C 486.89 246.07 480.27 227.05 478.99 216.01 C 477.72 204.96 474.17 190.70 470.78 180.22 C 467.38 169.75 462.87 159.71 457.75 150.25 C 452.64 140.79 446.97 133.16 440.00 125.00
C 436.08 121.08 431.87 116.87 428.00 113.00
C 409.21 94.56 382.96 90.21 360.00 81.00
C 381.39 72.77 402.62 64.12 424.00 56.00
C 417.76 49.79 410.81 46.14 402.70 42.31 C 394.58 38.47 387.17 35.17 378.00 33.00 C 368.83 30.82 357.02 30.18 347.00 30.00 C 336.98 29.82 325.26 31.63 316.00 34.00 C 306.75 36.38 298.03 37.32 289.69 41.69 C 281.36 46.07 274.21 46.26 266.70 52.70 C 259.18 59.13 252.22 58.52 244.75 52.25 C 237.27 45.99 230.04 45.45 221.68 41.32 C 213.32 37.20 204.47 36.16 195.22 33.78 C 185.97 31.40 174.04 29.94 164.00 30.00 C 153.96 30.06 142.35 30.98 133.22 33.22 C 124.09 35.47 116.72 38.79 108.69 42.69 C 100.67 46.60 94.30 49.99 88.00 56.00
C 109.81 63.93 131.07 73.49 153.00 81.00
C 128.93 89.23 104.26 95.69 84.00 113.00
M 375.00 117.00 
C 378.25 119.78 381.26 122.80 384.00 126.00
C 403.56 148.89 417.37 176.71 418.99 207.01 C 420.62 237.31 401.62 263.85 379.00 283.00
C 387.37 296.06 396.21 320.19 389.01 335.01 C 381.81 349.83 375.41 365.38 359.77 372.77 C 344.13 380.16 339.01 396.16 330.08 410.08 C 321.15 424.00 300.87 435.39 283.93 429.07 C 266.98 422.76 248.02 422.21 230.99 428.99 C 213.97 435.77 193.99 424.23 184.70 410.30 C 175.40 396.38 170.82 380.82 154.92 373.08 C 139.01 365.34 133.33 349.90 126.02 334.98 C 118.72 320.05 126.56 296.70 135.00 283.00
C 117.84 266.48 103.36 251.56 98.02 227.98 C 92.69 204.39 99.16 173.64 111.31 153.31 C 123.45 132.97 134.22 117.82 155.23 105.23 C 176.24 92.64 205.63 88.94 230.07 97.93 C 254.51 106.91 282.80 97.27 307.67 93.67 C 332.54 90.07 356.75 100.99 375.00 117.00 Z"/>
</g>
<g fill="#747474" fill-opacity="1.00" stroke="None">
<path d="
M 38.00 61.00 
C 44.54 54.46 51.41 47.59 58.00 41.00
C 51.01 46.98 44.02 53.95 38.00 61.00 Z"/>
</g>
<g fill="#727272" fill-opacity="1.00" stroke="None">
<path d="
M 474.00 61.00 
C 468.02 54.01 461.05 47.02 454.00 41.00
C 460.54 47.54 467.42 54.42 474.00 61.00 Z"/>
</g>
<g fill="#000000" fill-opacity="1.00" stroke="None">
<path d="
M 384.00 126.00 
C 381.08 123.08 377.87 119.87 375.00 117.00
C 356.75 100.99 332.54 90.07 307.67 93.67 C 282.80 97.27 254.51 106.91 230.07 97.93 C 205.63 88.94 176.24 92.64 155.23 105.23 C 134.22 117.82 123.45 132.97 111.31 153.31 C 99.16 173.64 92.69 204.39 98.02 227.98 C 103.36 251.56 117.84 266.48 135.00 283.00
C 126.56 296.70 118.72 320.05 126.02 334.98 C 133.33 349.90 139.01 365.34 154.92 373.08 C 170.82 380.82 175.40 396.38 184.70 410.30 C 193.99 424.23 213.97 435.77 230.99 428.99 C 248.02 422.21 266.98 422.76 283.93 429.07 C 300.87 435.39 321.15 424.00 330.08 410.08 C 339.01 396.16 344.13 380.16 359.77 372.77 C 375.41 365.38 381.81 349.83 389.01 335.01 C 396.21 320.19 387.37 296.06 379.00 283.00
C 401.62 263.85 420.62 237.31 418.99 207.01 C 417.37 176.71 403.56 148.89 384.00 126.00
M 343.00 277.00 
C 346.76 291.69 364.85 309.24 360.22 325.22 C 355.59 341.20 338.85 356.33 322.32 351.68 C 305.79 347.02 288.77 339.30 272.00 335.00
C 272.00 324.67 272.00 314.33 272.00 304.00
C 293.93 298.13 311.15 276.12 310.00 253.00
C 300.00 253.00 290.00 253.00 280.00 253.00
C 282.14 282.89 232.01 282.87 234.00 253.00
C 224.00 253.00 214.00 253.00 204.00 253.00
C 203.25 276.10 220.10 297.81 242.00 304.00
C 242.00 314.33 242.00 324.67 242.00 335.00
C 225.25 339.41 208.35 347.00 191.78 351.78 C 175.21 356.55 158.24 340.67 154.07 324.93 C 149.91 309.18 166.99 291.86 171.00 277.00
C 153.49 255.62 123.67 240.35 126.00 209.00 C 128.33 177.65 140.45 156.33 165.25 134.25 C 190.05 112.17 229.73 133.55 258.00 133.00 C 286.27 132.45 324.90 112.73 349.25 134.75 C 373.59 156.77 386.78 177.97 389.00 209.00 C 391.21 240.04 360.58 256.11 343.00 277.00
M 312.00 380.00 
C 308.91 395.89 293.40 404.48 278.98 397.02 C 264.55 389.57 250.35 389.14 235.78 396.78 C 221.20 404.42 205.55 396.12 202.00 380.00
C 214.19 374.68 225.81 373.97 238.02 368.02 C 250.23 362.08 262.98 361.69 275.22 367.78 C 287.47 373.86 299.85 374.18 312.00 380.00 Z"/>
</g>
<g fill="#7D7D7D" fill-opacity="1.00" stroke="None">
<path d="
M 73.00 124.00 
C 76.54 120.46 80.41 116.59 84.00 113.00
C 80.11 116.33 76.37 120.06 73.00 124.00 Z"/>
</g>
<g fill="#7B7B7B" fill-opacity="1.00" stroke="None">
<path d="
M 440.00 125.00 
C 436.38 120.76 432.29 116.66 428.00 113.00
C 431.87 116.87 436.08 121.08 440.00 125.00 Z"/>
</g>
<g fill="#828282" fill-opacity="1.00" stroke="None">
<path d="
M 384.00 126.00 
C 381.26 122.80 378.25 119.78 375.00 117.00
C 377.87 119.87 381.08 123.08 384.00 126.00 Z"/>
</g>
<g fill="#FDFDFD" fill-opacity="1.00" stroke="None">
<path d="
M 343.00 277.00 
C 360.58 256.11 391.21 240.04 389.00 209.00 C 386.78 177.97 373.59 156.77 349.25 134.75 C 324.90 112.73 286.27 132.45 258.00 133.00 C 229.73 133.55 190.05 112.17 165.25 134.25 C 140.45 156.33 128.33 177.65 126.00 209.00 C 123.67 240.35 153.49 255.62 171.00 277.00
C 166.99 291.86 149.91 309.18 154.07 324.93 C 158.24 340.67 175.21 356.55 191.78 351.78 C 208.35 347.00 225.25 339.41 242.00 335.00
C 242.00 324.67 242.00 314.33 242.00 304.00
C 220.10 297.81 203.25 276.10 204.00 253.00
C 214.00 253.00 224.00 253.00 234.00 253.00
C 232.01 282.87 282.14 282.89 280.00 253.00
C 290.00 253.00 300.00 253.00 310.00 253.00
C 311.15 276.12 293.93 298.13 272.00 304.00
C 272.00 314.33 272.00 324.67 272.00 335.00
C 288.77 339.30 305.79 347.02 322.32 351.68 C 338.85 356.33 355.59 341.20 360.22 325.22 C 364.85 309.24 346.76 291.69 343.00 277.00
M 196.00 192.00 
C 196.00 202.00 196.00 212.00 196.00 222.00
C 186.00 222.00 176.00 222.00 166.00 222.00
C 166.00 212.00 166.00 202.00 166.00 192.00
C 176.00 192.00 186.00 192.00 196.00 192.00
M 346.00 192.00 
C 346.00 202.00 346.00 212.00 346.00 222.00
C 336.00 222.00 326.00 222.00 316.00 222.00
C 316.00 212.00 316.00 202.00 316.00 192.00
C 326.00 192.00 336.00 192.00 346.00 192.00 Z"/>
</g>
<g fill="#000000" fill-opacity="1.00" stroke="None">
<path d="
M 196.00 192.00 
C 186.00 192.00 176.00 192.00 166.00 192.00
C 166.00 202.00 166.00 212.00 166.00 222.00
C 176.00 222.00 186.00 222.00 196.00 222.00
C 196.00 212.00 196.00 202.00 196.00 192.00 Z"/>
</g>
<g fill="#000000" fill-opacity="1.00" stroke="None">
<path d="
M 346.00 192.00 
C 336.00 192.00 326.00 192.00 316.00 192.00
C 316.00 202.00 316.00 212.00 316.00 222.00
C 326.00 222.00 336.00 222.00 346.00 222.00
C 346.00 212.00 346.00 202.00 346.00 192.00 Z"/>
</g>
<g fill="#FDFDFD" fill-opacity="1.00" stroke="None">
<path d="
M 0.00 512.00 
L 254.00 512.00
C 208.25 506.16 163.45 484.01 134.00 446.00
C 129.43 452.95 123.60 459.02 119.00 466.00
C 52.06 431.44 12.12 351.25 35.00 278.00
C 23.32 275.32 11.59 272.91 0.00 270.00
L 0.00 512.00 Z"/>
</g>
<g fill="#FDFDFD" fill-opacity="1.00" stroke="None">
<path d="
M 258.00 512.00 
L 512.00 512.00
L 512.00 270.00
C 500.38 272.92 488.68 275.45 477.00 278.00
C 499.75 351.27 460.04 431.41 393.00 466.00
C 387.93 459.21 383.05 451.92 377.00 446.00
C 348.96 484.89 303.17 505.90 258.00 512.00 Z"/>
</g>
<g fill="#FBFBFB" fill-opacity="1.00" stroke="None">
<path d="
M 312.00 380.00 
C 299.85 374.18 287.47 373.86 275.22 367.78 C 262.98 361.69 250.23 362.08 238.02 368.02 C 225.81 373.97 214.19 374.68 202.00 380.00
C 205.55 396.12 221.20 404.42 235.78 396.78 C 250.35 389.14 264.55 389.57 278.98 397.02 C 293.40 404.48 308.91 395.89 312.00 380.00 Z"/>
</g>
<g fill="#777777" fill-opacity="1.00" stroke="None">
<path d="
M 337.00 446.00 
C 340.55 442.97 343.93 439.60 347.00 436.00
C 343.79 439.21 340.25 442.75 337.00 446.00 Z"/>
</g>
<g fill="#6F6F6F" fill-opacity="1.00" stroke="None">
<path d="
M 175.00 446.00 
C 172.13 443.13 168.92 439.92 166.00 437.00
C 168.74 440.20 171.75 443.22 175.00 446.00 Z"/>
</g>
</svg>